<svg id="visual" viewBox="0 0 1920 1080" width="1920" height="1080" xmlns="http://www.w3.org/2000/svg" xmlns:xlink="http://www.w3.org/1999/xlink" version="1.1"><rect x="0" y="0" width="1920" height="1080" fill="#6200ff"></rect><path d="M0 603L26.7 631.2C53.3 659.3 106.7 715.7 160 713.2C213.3 710.7 266.7 649.3 320 637.8C373.3 626.3 426.7 664.7 480 676.3C533.3 688 586.7 673 640 673C693.3 673 746.7 688 800 704.7C853.3 721.3 906.7 739.7 960 739C1013.3 738.3 1066.7 718.7 1120 718.8C1173.3 719 1226.7 739 1280 750.8C1333.3 762.7 1386.7 766.3 1440 755.2C1493.3 744 1546.7 718 1600 696.8C1653.3 675.7 1706.7 659.3 1760 656.5C1813.3 653.7 1866.7 664.3 1893.3 669.7L1920 675L1920 1081L1893.3 1081C1866.7 1081 1813.3 1081 1760 1081C1706.7 1081 1653.3 1081 1600 1081C1546.7 1081 1493.3 1081 1440 1081C1386.7 1081 1333.3 1081 1280 1081C1226.7 1081 1173.3 1081 1120 1081C1066.7 1081 1013.3 1081 960 1081C906.7 1081 853.3 1081 800 1081C746.7 1081 693.3 1081 640 1081C586.7 1081 533.3 1081 480 1081C426.7 1081 373.3 1081 320 1081C266.7 1081 213.3 1081 160 1081C106.7 1081 53.3 1081 26.7 1081L0 1081Z" fill="#010040" stroke-linecap="round" stroke-linejoin="miter"></path></svg>