<svg id="visual" viewBox="0 0 900 600" width="900" height="600" xmlns="http://www.w3.org/2000/svg" xmlns:xlink="http://www.w3.org/1999/xlink" version="1.1"><rect x="0" y="0" width="900" height="600" fill="#141b29"></rect><path d="M0 184L21.5 178.7C43 173.3 86 162.7 128.8 167.8C171.7 173 214.3 194 257.2 195.3C300 196.7 343 178.3 385.8 182.2C428.7 186 471.3 212 514.2 225.3C557 238.7 600 239.3 642.8 228.2C685.7 217 728.3 194 771.2 191.7C814 189.3 857 207.7 878.5 216.8L900 226L900 0L878.5 0C857 0 814 0 771.2 0C728.3 0 685.7 0 642.8 0C600 0 557 0 514.2 0C471.3 0 428.7 0 385.8 0C343 0 300 0 257.2 0C214.3 0 171.7 0 128.8 0C86 0 43 0 21.5 0L0 0Z" fill="#984673"></path><path d="M0 199L21.5 185.8C43 172.7 86 146.3 128.8 145C171.7 143.7 214.3 167.3 257.2 171.2C300 175 343 159 385.8 157.2C428.7 155.3 471.3 167.7 514.2 177.5C557 187.3 600 194.7 642.8 189.8C685.7 185 728.3 168 771.2 159.5C814 151 857 151 878.5 151L900 151L900 0L878.5 0C857 0 814 0 771.2 0C728.3 0 685.7 0 642.8 0C600 0 557 0 514.2 0C471.3 0 428.7 0 385.8 0C343 0 300 0 257.2 0C214.3 0 171.7 0 128.8 0C86 0 43 0 21.5 0L0 0Z" fill="#7f3c6c"></path><path d="M0 144L21.5 143.2C43 142.3 86 140.7 128.8 136.5C171.7 132.3 214.3 125.7 257.2 119.2C300 112.7 343 106.3 385.8 111C428.7 115.7 471.3 131.3 514.2 132.2C557 133 600 119 642.8 119.8C685.7 120.7 728.3 136.3 771.2 141.7C814 147 857 142 878.5 139.5L900 137L900 0L878.5 0C857 0 814 0 771.2 0C728.3 0 685.7 0 642.8 0C600 0 557 0 514.2 0C471.3 0 428.7 0 385.8 0C343 0 300 0 257.2 0C214.3 0 171.7 0 128.8 0C86 0 43 0 21.5 0L0 0Z" fill="#673263"></path><path d="M0 115L21.5 113C43 111 86 107 128.8 101.2C171.7 95.3 214.3 87.7 257.2 88.2C300 88.7 343 97.3 385.8 94.7C428.7 92 471.3 78 514.2 78C557 78 600 92 642.8 99.3C685.7 106.7 728.3 107.3 771.2 102.2C814 97 857 86 878.5 80.5L900 75L900 0L878.5 0C857 0 814 0 771.2 0C728.3 0 685.7 0 642.8 0C600 0 557 0 514.2 0C471.3 0 428.7 0 385.8 0C343 0 300 0 257.2 0C214.3 0 171.7 0 128.8 0C86 0 43 0 21.5 0L0 0Z" fill="#4e2959"></path><path d="M0 64L21.5 61.2C43 58.3 86 52.7 128.8 46C171.7 39.3 214.3 31.7 257.2 30.3C300 29 343 34 385.8 34.2C428.7 34.3 471.3 29.7 514.2 30.3C557 31 600 37 642.8 42.3C685.7 47.7 728.3 52.3 771.2 49.7C814 47 857 37 878.5 32L900 27L900 0L878.5 0C857 0 814 0 771.2 0C728.3 0 685.7 0 642.8 0C600 0 557 0 514.2 0C471.3 0 428.7 0 385.8 0C343 0 300 0 257.2 0C214.3 0 171.7 0 128.8 0C86 0 43 0 21.5 0L0 0Z" fill="#36204e"></path></svg>